<?xml version="1.0" encoding="iso-8859-1"?>
<!-- Generator: Adobe Illustrator 22.0.1, SVG Export Plug-In . SVG Version: 6.00 Build 0)  -->
<svg xmlns="http://www.w3.org/2000/svg" xmlns:xlink="http://www.w3.org/1999/xlink" version="1.1" id="Layer_1" x="0px" y="0px" viewBox="0 0 64 64" style="enable-background:new 0 0 64 64;" xml:space="preserve" width="512" height="512">
<style type="text/css">
	.st0{fill:#52B8D9;}
	.st1{fill:#63312D;}
	.st2{fill:#82D9FF;}
	.st3{fill:#CAF4FF;}
	.st4{fill:#F8F3F3;}
	.st5{fill:#F9DD9D;}
	.st6{fill:#FFEECF;}
	.st7{fill:#F9A287;}
	.st8{fill:#FFC8BB;}
	.st9{fill:#DB785A;}
	.st10{fill:#D1D1D1;}
	.st11{fill:#BCBCBC;}
	.st12{fill:#EFC36A;}
	.st13{fill:#84DBFF;}
	.st14{fill:#E1DDDD;}
</style>
<g>
	<path class="st10" d="M50.625,60.892h-33.25c-1.657,0-3-1.343-3-3V6.108c0-1.657,1.343-3,3-3h33.25c1.657,0,3,1.343,3,3v51.783   C53.625,59.549,52.282,60.892,50.625,60.892z"/>
	<path class="st1" d="M50.625,61.392h-33.25c-1.93,0-3.5-1.57-3.5-3.5V6.108c0-1.93,1.57-3.5,3.5-3.5h33.25c1.93,0,3.5,1.57,3.5,3.5   v51.783C54.125,59.821,52.555,61.392,50.625,61.392z M17.375,3.608c-1.378,0-2.5,1.122-2.5,2.5v51.783c0,1.378,1.122,2.5,2.5,2.5   h33.25c1.378,0,2.5-1.122,2.5-2.5V6.108c0-1.378-1.122-2.5-2.5-2.5H17.375z"/>
	<path class="st4" d="M46.625,60.892h-33.25c-1.657,0-3-1.343-3-3V6.108c0-1.657,1.343-3,3-3h33.25c1.657,0,3,1.343,3,3v51.783   C49.625,59.549,48.282,60.892,46.625,60.892z"/>
	<path class="st5" d="M42.403,42.418c-0.046-0.888-0.843-1.553-1.732-1.553l-4.065,0h-3.182c1.049-1.809,2.381-3.669,2.869-5.714   c0.205-0.856-0.091-1.78-0.827-2.262c-0.977-0.639-2.244-0.332-2.836,0.616l-0.295,0.473c-0.841,1.347-1.946,2.509-3.249,3.417   l-4.044,2.817V52.92l1.462,0.53c0.994,0.36,2.043,0.545,3.101,0.545h6.401l2.89,0c0.889,0,1.685-0.666,1.732-1.553   c0.05-0.947-0.703-1.73-1.639-1.73l0.494,0c0.889,0,1.685-0.666,1.732-1.553c0.05-0.947-0.703-1.73-1.639-1.73h0.494   c0.889,0,1.685-0.665,1.732-1.553c0.05-0.947-0.703-1.73-1.639-1.73h0.603C41.699,44.148,42.452,43.365,42.403,42.418z"/>
	<path class="st1" d="M40.764,44.647h-2.44v-1h2.44c0.629,0,1.141-0.512,1.141-1.141s-0.512-1.141-1.141-1.141h-7.341   c-0.179,0-0.344-0.096-0.433-0.25s-0.089-0.346,0-0.5c0.221-0.381,0.454-0.764,0.689-1.15c0.889-1.46,1.808-2.97,2.156-4.559   c0.157-0.716-0.219-1.443-0.894-1.729c-0.696-0.298-1.49-0.044-1.889,0.596l-0.295,0.473c-0.882,1.413-2.021,2.611-3.387,3.563   l-4.044,2.817l-0.571-0.82l4.044-2.817c1.254-0.874,2.3-1.975,3.11-3.271l0.295-0.473c0.663-1.061,1.978-1.477,3.128-0.987   c1.117,0.474,1.739,1.678,1.479,2.864c-0.384,1.752-1.347,3.335-2.279,4.865c-0.078,0.127-0.155,0.254-0.231,0.381h6.461   c1.181,0,2.141,0.96,2.141,2.141S41.944,44.647,40.764,44.647z"/>
	<path class="st1" d="M40.161,47.93h-2.439v-1h2.439c0.629,0,1.142-0.512,1.142-1.141s-0.512-1.142-1.142-1.142h-2.439v-1h2.439   c1.181,0,2.142,0.961,2.142,2.142S41.341,47.93,40.161,47.93z"/>
	<path class="st1" d="M39.574,51.213h-2.439v-1h2.439c0.629,0,1.142-0.512,1.142-1.141s-0.512-1.142-1.142-1.142h-2.439v-1h2.439   c1.181,0,2.142,0.961,2.142,2.142S40.755,51.213,39.574,51.213z"/>
	<path class="st1" d="M38.988,54.496h-9.501c-1.041,0-2.064-0.18-3.043-0.535l-1.573-0.57l0.341-0.94l1.573,0.57   c0.869,0.315,1.778,0.475,2.702,0.475h9.501c0.629,0,1.141-0.512,1.141-1.141s-0.512-1.142-1.141-1.142h-2.439v-1h2.439   c1.181,0,2.141,0.961,2.141,2.142S40.168,54.496,38.988,54.496z"/>
	<rect x="19.437" y="39.888" class="st13" width="5.604" height="13.815"/>
	<polygon class="st3" points="21.437,41.888 25.041,41.888 25.041,39.888 19.437,39.888 19.437,53.702 21.437,53.702  "/>
	<path class="st1" d="M25.041,54.202h-5.604c-0.276,0-0.5-0.224-0.5-0.5V39.888c0-0.276,0.224-0.5,0.5-0.5h5.604   c0.276,0,0.5,0.224,0.5,0.5v13.814C25.541,53.979,25.317,54.202,25.041,54.202z M19.937,53.202h4.604V40.388h-4.604V53.202z"/>
	<path class="st1" d="M46.625,61.392h-33.25c-1.93,0-3.5-1.57-3.5-3.5V6.108c0-1.93,1.57-3.5,3.5-3.5h33.25c1.93,0,3.5,1.57,3.5,3.5   v51.783C50.125,59.821,48.555,61.392,46.625,61.392z M13.375,3.608c-1.378,0-2.5,1.122-2.5,2.5v51.783c0,1.378,1.122,2.5,2.5,2.5   h33.25c1.378,0,2.5-1.122,2.5-2.5V6.108c0-1.378-1.122-2.5-2.5-2.5H13.375z"/>
	<rect x="17.799" y="12.333" class="st1" width="24.606" height="1"/>
	<rect x="17.799" y="17.417" class="st1" width="24.606" height="1"/>
	<path class="st5" d="M22.163,21.875l0.69,1.398l1.543,0.224c0.414,0.06,0.579,0.568,0.279,0.86l-1.117,1.089l0.264,1.537   c0.071,0.412-0.362,0.726-0.732,0.532l-1.38-0.726l-1.38,0.726c-0.37,0.194-0.802-0.12-0.732-0.532l0.264-1.537l-1.117-1.089   c-0.299-0.292-0.134-0.8,0.279-0.86l1.543-0.224l0.69-1.398C21.443,21.5,21.978,21.5,22.163,21.875z"/>
	<path class="st1" d="M23.327,28.074c-0.16,0-0.321-0.039-0.469-0.117l-1.147-0.603l-1.148,0.603c-0.34,0.18-0.745,0.15-1.057-0.076   c-0.312-0.226-0.465-0.603-0.4-0.982l0.219-1.279l-0.929-0.905c-0.275-0.269-0.373-0.663-0.254-1.029   c0.119-0.367,0.43-0.628,0.811-0.684l1.283-0.187l0.574-1.163c0.17-0.345,0.515-0.56,0.9-0.56c0,0,0,0,0,0   c0.385,0,0.73,0.214,0.9,0.56l0,0l0.574,1.163l1.283,0.187c0.381,0.055,0.692,0.317,0.811,0.684   c0.119,0.366,0.021,0.76-0.254,1.029l-0.928,0.905l0.219,1.278c0.065,0.379-0.088,0.756-0.399,0.982   C23.739,28.009,23.534,28.074,23.327,28.074z M21.71,26.289c0.08,0,0.16,0.019,0.232,0.058l1.38,0.726l-0.257-1.542   c-0.028-0.162,0.026-0.328,0.144-0.442L24.326,24l-1.545-0.231c-0.163-0.023-0.304-0.126-0.376-0.273l-0.69-1.398   c-0.001-0.003-0.002-0.004-0.002-0.004l-0.696,1.402c-0.073,0.147-0.213,0.25-0.376,0.273l-1.543,0.224l1.114,1.096   c0.118,0.115,0.171,0.28,0.144,0.442l-0.264,1.537l1.387-0.721C21.551,26.308,21.63,26.289,21.71,26.289z"/>
	<path class="st5" d="M30.554,21.875l0.69,1.398l1.543,0.224c0.414,0.06,0.579,0.568,0.279,0.86l-1.117,1.089l0.264,1.537   c0.071,0.412-0.362,0.726-0.732,0.532l-1.38-0.726l-1.38,0.726c-0.37,0.194-0.802-0.12-0.732-0.532l0.264-1.537l-1.117-1.089   c-0.299-0.292-0.134-0.8,0.279-0.86l1.543-0.224l0.69-1.398C29.835,21.5,30.369,21.5,30.554,21.875z"/>
	<path class="st1" d="M31.718,28.074c-0.16,0-0.321-0.039-0.469-0.117l-1.147-0.603l-1.148,0.603c-0.34,0.18-0.746,0.15-1.057-0.076   s-0.465-0.603-0.4-0.982l0.219-1.279l-0.929-0.905c-0.275-0.269-0.373-0.663-0.254-1.029c0.119-0.367,0.43-0.628,0.811-0.684   l1.283-0.187l0.574-1.163c0.17-0.345,0.515-0.56,0.9-0.56c0,0,0,0,0,0c0.385,0,0.73,0.214,0.9,0.56l0,0l0.574,1.163l1.283,0.187   c0.381,0.055,0.692,0.317,0.811,0.684c0.119,0.366,0.021,0.76-0.254,1.029l-0.928,0.905l0.219,1.278   c0.065,0.379-0.088,0.756-0.399,0.982C32.131,28.009,31.925,28.074,31.718,28.074z M30.102,26.289c0.08,0,0.16,0.019,0.232,0.058   l1.38,0.726l-0.257-1.542c-0.028-0.162,0.026-0.328,0.144-0.442L32.718,24l-1.545-0.231c-0.163-0.023-0.304-0.126-0.376-0.273   l-0.69-1.398c-0.001-0.003-0.002-0.004-0.002-0.004l-0.696,1.402c-0.073,0.147-0.213,0.25-0.376,0.273l-1.543,0.224l1.114,1.096   c0.118,0.115,0.171,0.28,0.144,0.442l-0.264,1.537l1.387-0.721C29.942,26.308,30.022,26.289,30.102,26.289z"/>
	<path class="st5" d="M38.946,21.875l0.69,1.398l1.543,0.224c0.414,0.06,0.579,0.568,0.279,0.86l-1.117,1.089l0.264,1.537   c0.071,0.412-0.362,0.726-0.732,0.532l-1.38-0.726l-1.38,0.726c-0.37,0.194-0.802-0.12-0.732-0.532l0.264-1.537l-1.117-1.089   c-0.299-0.292-0.134-0.8,0.279-0.86l1.543-0.224l0.69-1.398C38.226,21.5,38.761,21.5,38.946,21.875z"/>
	<path class="st1" d="M40.11,28.074c-0.16,0-0.321-0.039-0.469-0.117l-1.147-0.603l-1.148,0.603c-0.34,0.18-0.745,0.15-1.057-0.076   c-0.312-0.226-0.465-0.603-0.4-0.982l0.219-1.279l-0.929-0.905c-0.275-0.269-0.373-0.663-0.254-1.029   c0.119-0.367,0.429-0.628,0.811-0.684l1.283-0.187l0.574-1.163c0.17-0.345,0.515-0.56,0.9-0.56c0,0,0,0,0,0   c0.385,0,0.73,0.214,0.9,0.56l0,0l0.574,1.163l1.283,0.187c0.381,0.055,0.692,0.317,0.811,0.684   c0.119,0.366,0.021,0.76-0.254,1.029l-0.928,0.905l0.219,1.278c0.065,0.379-0.088,0.756-0.399,0.982   C40.522,28.009,40.317,28.074,40.11,28.074z M38.494,26.289c0.08,0,0.16,0.019,0.232,0.058l1.38,0.726l-0.257-1.542   c-0.028-0.162,0.026-0.328,0.144-0.442L41.109,24l-1.545-0.231c-0.163-0.023-0.304-0.126-0.376-0.273l-0.69-1.398   c-0.001-0.003-0.002-0.004-0.002-0.004l-0.696,1.402c-0.073,0.148-0.213,0.25-0.376,0.273l-1.543,0.224l1.115,1.096   c0.118,0.115,0.171,0.28,0.144,0.442l-0.264,1.537l1.387-0.721C38.334,26.308,38.414,26.289,38.494,26.289z"/>
</g>
</svg>
